<svg width="324" height="316" viewBox="0 0 324 316" fill="none" xmlns="http://www.w3.org/2000/svg">
<path d="M162 40L126 5H198L162 40Z" fill="#034081" stroke="#034081" stroke-width="8" stroke-linejoin="round"/>
<path d="M86 5H238" stroke="#034081" stroke-width="10" stroke-linecap="round"/>
<path d="M162 70V170" stroke="#034081" stroke-width="6"/>
<path d="M232 40C254.091 40 272 57.9086 272 80V260C272 282.091 254.091 300 232 300H92C69.9086 300 52 282.091 52 260V80C52 57.9086 69.9086 40 92 40H232ZM102 204C93.1634 204 86 211.163 86 220C86 228.837 93.1634 236 102 236C110.837 236 118 228.837 118 220C118 211.163 110.837 204 102 204ZM222 204C213.163 204 206 211.163 206 220C206 228.837 213.163 236 222 236C230.837 236 238 228.837 238 220C238 211.163 230.837 204 222 204ZM82 70C76.6957 70 71.6082 72.1067 67.8574 75.8574C64.1067 79.6082 62 84.6957 62 90V160C62 162.652 63.0533 165.196 64.9287 167.071C66.8041 168.947 69.3478 170 72 170H252C254.652 170 257.196 168.947 259.071 167.071C260.947 165.196 262 162.652 262 160V90C262 84.6957 259.893 79.6082 256.143 75.8574C252.392 72.1067 247.304 70 242 70H82Z" fill="#034081"/>
<path d="M6 310H318" stroke="#034081" stroke-width="12" stroke-linecap="round"/>
</svg>
